Coordinates
version=1
nRows=29
nColumns=24
inDegrees=yes

Units are S.I. units (second, meters, Newtons, ...)
Angles are in degrees.

endheader
time	pelvis_tilt	pelvis_list	pelvis_rotation	pelvis_tx	pelvis_ty	pelvis_tz	hip_flexion_r	hip_adduction_r	hip_rotation_r	knee_angle_r	ankle_angle_r	subtalar_angle_r	mtp_angle_r	hip_flexion_l	hip_adduction_l	hip_rotation_l	knee_angle_l	ankle_angle_l	subtalar_angle_l	mtp_angle_l	lumbar_extension	lumbar_bending	lumbar_rotation
      1.23300000	     -5.32555482	      2.47228833	     -1.10173112	      0.22448908	      1.02473664	      0.26441495	     20.69345359	     -2.33154863	     -5.06845748	    -62.22189669	     -1.85371001	     -8.02117819	     11.35891107	     13.36498097	      6.38539812	      1.79138305	    -10.56964677	      2.78785468	     -6.92958460	      3.92137162	     -0.30544282	     -3.69064965	      2.30464478
      1.23716667	     -5.33969809	      2.42279235	     -1.19924884	      0.22987996	      1.02538773	      0.26424276	     21.23122247	     -2.21383326	     -4.83868575	    -61.86381972	     -1.12981360	     -8.01674360	     11.15817181	     12.93505594	      6.33199306	      1.70536558	    -10.34997525	      2.96124990	     -6.82167137	      3.82421388	     -0.32576184	     -3.58906610	      2.33882077
      1.24133333	     -5.36343864	      2.34456528	     -1.28512269	      0.23527472	      1.02602964	      0.26407429	     21.75264430	     -2.05627688	     -4.62182634	    -61.41180055	     -0.56143712	     -8.25260533	     11.10874804	     12.51241841	      6.25213863	      1.65305240	    -10.12693487	      3.10537009	     -6.81099527	      3.79787180	     -0.32992864	     -3.45673085	      2.32074376
      1.24550000	     -5.38818637	      2.27727440	     -1.37932374	      0.24066337	      1.02663522	      0.26393062	     22.26785651	     -1.90709458	     -4.39559797	    -60.91593024	      0.00463128	     -8.41726094	     11.05371804	     12.08913567	      6.18151822	      1.58303822	     -9.89940561	      3.25026759	     -6.77545435	      3.76737717	     -0.33802126	     -3.33493854	      2.31403471
      1.24966667	     -5.38620988	      2.21528980	     -1.48254580	      0.24604671	      1.02725905	      0.26380931	     22.74032953	     -1.76115335	     -4.16258627	    -60.36359001	      0.57308972	     -8.53839153	     10.96458455	     11.63628049	      6.11421783	      1.48117436	     -9.66767818	      3.40060795	     -6.70347156	      3.71802076	     -0.39372896	     -3.21569553	      2.32812474
      1.25383333	     -5.40535700	      2.14929224	     -1.57949683	      0.25142334	      1.02782429	      0.26369423	     23.22310266	     -1.60724520	     -3.93006740	    -59.75938469	      1.06742986	     -8.68475307	     10.89362289	     11.20156080	      6.04528631	      1.40096553	     -9.42633821	      3.55153194	     -6.64618761	      3.67801772	     -0.40088382	     -3.10063257	      2.32923502
      1.25800000	     -5.41678279	      2.07914759	     -1.67928401	      0.25678448	      1.02835783	      0.26358827	     23.68343428	     -1.44718058	     -3.69765105	    -59.10134712	      1.53480847	     -8.82878639	     10.82616344	     10.76113706	      5.97259251	      1.31351683	     -9.18802174	      3.70404220	     -6.58974242	      3.63911891	     -0.42279059	     -2.97591996	      2.33033214
      1.26216667	     -5.35796082	      1.99549824	     -1.78762272	      0.26213967	      1.02900207	      0.26352113	     24.04423928	     -1.26791940	     -3.45866395	    -58.36980726	      1.94041352	     -8.93728799	     10.54735329	     10.24727008	      5.88074564	      1.16262359	     -8.95395232	      3.90952091	     -6.36717074	      3.48295194	     -0.55662875	     -2.84521883	      2.39129507
      1.26633333	     -5.41432443	      1.93571011	     -1.87370164	      0.26747021	      1.02939357	      0.26342875	     24.52660125	     -1.11812413	     -3.23460639	    -57.61569377	      2.35476960	     -9.10014354	     10.47363577	      9.86740401	      5.82275343	      1.08879380	     -8.73690961	      4.04660036	     -6.37083950	      3.43874597	     -0.52753204	     -2.73956470	      2.36281042
      1.27050000	     -5.44672271	      1.87566294	     -1.96252422	      0.27279097	      1.02978608	      0.26334830	     24.96749409	     -0.96876574	     -3.01146736	    -56.80893727	      2.71221609	     -9.23650800	     10.39783466	      9.45711068	      5.76638238	      1.01616516	     -8.50661842	      4.18797929	     -6.34907535	      3.39286675	     -0.53082263	     -2.63020554	      2.34361047
      1.27466667	     -5.44338716	      1.78323580	     -2.02345794	      0.27808434	      1.03022986	      0.26325627	     25.33910119	     -0.79212432	     -2.81898318	    -55.93181817	      3.07947581	     -9.34189432	      7.89154373	      9.03560670	      5.67443144	      0.90242948	     -8.34142043	      4.51061443	     -6.06775832	      1.86483663	     -0.59251662	     -2.49573703	      2.36013384
      1.27883333	     -5.48049531	      1.75794719	     -2.11719906	      0.28336879	      1.03053093	      0.26321103	     25.76276120	     -0.67297332	     -2.56990264	    -55.04042037	      3.35774397	     -9.44503612	      7.88699003	      8.63127107	      5.65807201	      0.84000534	     -8.10084581	      4.59835775	     -6.10049051	      1.85924782	     -0.57522267	     -2.45787110	      2.32009499
      1.28300000	     -5.46806251	      1.66745480	     -2.18897032	      0.28863157	      1.03091282	      0.26313053	     26.09375638	     -0.49975361	     -2.37668781	    -54.05645847	      3.57541642	     -9.62377916	      7.85857749	      8.18340391	      5.57668214	      0.77703365	     -7.88287668	      4.69605491	     -6.14622465	      1.83575208	     -0.67332011	     -2.30541172	      2.28960443
      1.28716667	     -5.50578816	      1.63001718	     -2.25410116	      0.29389052	      1.03113003	      0.26304265	     26.48132429	     -0.38950416	     -2.18147407	    -53.06650559	      3.79439858	     -9.74579159	      7.83784325	      7.78915028	      5.55479371	      0.73619544	     -7.65836699	      4.83628493	     -6.15837215	      1.81916117	     -0.67768938	     -2.21988470	      2.25311898
      1.29133333	     -5.51777423	      1.55086864	     -2.29998359	      0.29911883	      1.03139431	      0.26295694	     26.80251185	     -0.23602943	     -2.00279536	    -51.98424737	      3.93127327	     -9.90563698	      7.79908204	      7.38463113	      5.48879935	      0.70130322	     -7.47161300	      4.96952670	     -6.16071651	      1.78938929	     -0.72970371	     -2.10435715	      2.20808270
      1.29550000	     -5.56694409	      1.52375100	     -2.35351574	      0.30435317	      1.03150797	      0.26286932	     27.17102920	     -0.14635265	     -1.82779324	    -50.90552459	      4.07677583	    -10.02185402	      7.77016768	      7.00928190	      5.48027533	      0.66711919	     -7.25376581	      5.11682977	     -6.16299841	      1.76766180	     -0.72596505	     -2.04273592	      2.16020852
      1.29966667	     -5.57841043	      1.45997694	     -2.37831708	      0.30954544	      1.03168988	      0.26277085	     27.45679051	     -0.02248593	     -1.67146427	    -49.72893895	      4.12073675	    -10.21238091	      7.71319001	      6.61899829	      5.43480007	      0.64324570	     -7.09100335	      5.24982044	     -6.16693573	      1.72422469	     -0.77961697	     -1.94265188	      2.09191618
      1.30383333	     -5.60525742	      1.42168344	     -2.40419855	      0.31475457	      1.03179493	      0.26267370	     27.75051506	      0.06665659	     -1.52827228	    -48.52456179	      4.11354823	    -10.41808079	      7.61640656	      6.23034205	      5.41757745	      0.63318974	     -6.89217038	      5.39398824	     -6.15823431	      1.64900613	     -0.81003514	     -1.88242343	      1.99877457
      1.30800000	     -5.65229023	      1.38222819	     -2.42011243	      0.31993528	      1.03182217	      0.26255844	     28.04894364	      0.14885228	     -1.40062881	    -47.28028267	      4.16512830	    -10.53559064	      7.55253586	      5.88293320	      5.40005387	      0.61458287	     -6.73178077	      5.52731469	     -6.17803740	      1.59962419	     -0.81896248	     -1.79860592	      1.93233023
      1.31216667	     -5.67615949	      1.35453267	     -2.42637204	      0.32513604	      1.03186448	      0.26244532	     28.29985649	      0.20944240	     -1.29334043	    -45.98275660	      4.09611572	    -10.74185089	      7.44285357	      5.49670208	      5.39740916	      0.61911385	     -6.54088537	      5.66185138	     -6.18264335	      1.51608533	     -0.85314675	     -1.75652346	      1.82536710
      1.31633333	     -5.73205690	      1.32517198	     -2.42223176	      0.33031798	      1.03181011	      0.26231311	     28.56678691	      0.26549408	     -1.19884858	    -44.64549839	      4.07730783	    -10.86329434	      7.36164058	      5.16485921	      5.39251837	      0.61491346	     -6.39129971	      5.78879891	     -6.20066505	      1.45547620	     -0.85037846	     -1.68364894	      1.74193160
      1.32050000	     -5.78253728	      1.31420776	     -2.41388437	      0.33549978	      1.03171982	      0.26218417	     28.81361765	      0.29453332	     -1.12317214	    -43.27075085	      3.99979170	    -11.01937527	      7.27166077	      4.82157149	      5.40825548	      0.61977395	     -6.22537935	      5.91408301	     -6.21402555	      1.39046891	     -0.85467887	     -1.64564046	      1.63982787
      1.32466667	     -5.84092108	      1.31263048	     -2.39604038	      0.34069270	      1.03158686	      0.26206104	     29.04881131	      0.30658148	     -1.07036729	    -41.85197099	      3.85846957	    -11.22347582	      7.12656578	      4.48314417	      5.43350563	      0.63275368	     -6.05123231	      6.03975585	     -6.22127183	      1.28429593	     -0.85132508	     -1.64181319	      1.49761616
      1.32883333	     -5.90943482	      1.29073730	     -2.36820903	      0.34589156	      1.03142095	      0.26191109	     29.26849189	      0.32687133	     -1.05482352	    -40.38587792	      3.77579581	    -11.28948734	      7.03654928	      4.16784920	      5.43692321	      0.63773956	     -5.90647742	      6.15548171	     -6.23209972	      1.22083630	     -0.83990221	     -1.58137783	      1.41164061
      1.33300000	     -5.96007477	      1.29354674	     -2.33704361	      0.35109813	      1.03123880	      0.26177256	     29.45290752	      0.31693151	     -1.05022295	    -38.88429577	      3.62892329	    -11.41255543	      6.93236623	      3.82771782	      5.46723597	      0.64665696	     -5.74731584	      6.27021244	     -6.23141507	      1.14904558	     -0.84326266	     -1.56621150	      1.29220472
      1.33716667	     -6.01566671	      1.30007971	     -2.29861612	      0.35630908	      1.03101613	      0.26162450	     29.62314328	      0.29544232	     -1.07202770	    -37.34625808	      3.47788566	    -11.49356053	      6.82991595	      3.49866448	      5.50169257	      0.65300949	     -5.60094229	      6.37877992	     -6.22641925	      1.07896658	     -0.83705319	     -1.54919169	      1.17243228
      1.34133333	     -6.07783810	      1.32162099	     -2.25397639	      0.36153349	      1.03075908	      0.26148701	     29.78381384	      0.25183311	     -1.12239374	    -35.77792669	      3.31356428	    -11.55562671	      6.71961470	      3.17624065	      5.55078046	      0.65755567	     -5.45260011	      6.48322561	     -6.21513500	      1.00243569	     -0.82570682	     -1.56266110	      1.04125436
      1.34550000	     -6.14795849	      1.33860525	     -2.20554568	      0.36678004	      1.03045253	      0.26134572	     29.93178528	      0.20745680	     -1.20225713	    -34.17538025	      3.14323141	    -11.57838456	      6.60463439	      2.86348147	      5.59423729	      0.66047898	     -5.31136195	      6.58702099	     -6.19600096	      0.92122025	     -0.79926850	     -1.56476474	      0.90733878
      1.34966667	     -6.20906380	      1.37954200	     -2.15395020	      0.37203181	      1.03012397	      0.26121215	     30.05902086	      0.13262417	     -1.30799858	    -32.55741100	      2.98575824	    -11.52161817	      6.50590687	      2.54496209	      5.66318377	      0.65981760	     -5.17669756	      6.68113420	     -6.16809698	      0.84984609	     -0.76988780	     -1.58339985	      0.79025781
